<svg width="32" height="32" viewBox="0 0 32 32" fill="none" xmlns="http://www.w3.org/2000/svg">
<path d="M4 9C4 6.23858 6.23858 4 9 4H22C24.7614 4 27 6.23858 27 9V27C27 29.7614 24.7614 32 22 32H9C6.23858 32 4 29.7614 4 27V9Z" fill="white"/>
<path d="M11.5421 25.7291C11.3196 25.7706 11.2224 25.875 11.2503 26.0415C11.278 26.2081 11.403 26.2638 11.6252 26.2081C11.8477 26.1526 11.9448 26.0552 11.9168 25.9164C11.8893 25.7638 11.7643 25.7012 11.5421 25.7291Z" fill="black"/>
<path d="M10.3543 25.896C10.1321 25.896 10.021 25.9719 10.021 26.125C10.021 26.3056 10.1391 26.3817 10.3751 26.354C10.5974 26.354 10.7086 26.2776 10.7086 26.125C10.7086 25.9447 10.5905 25.868 10.3543 25.896Z" fill="black"/>
<path d="M8.7292 25.8331C8.67374 25.9859 8.76408 26.0898 8.99999 26.1457C9.20832 26.2286 9.34033 26.1871 9.39578 26.0206C9.43752 25.868 9.34719 25.7572 9.12499 25.6873C8.91659 25.6319 8.78473 25.6798 8.7292 25.8331Z" fill="black"/>
<path d="M30.2395 1.76026C29.0659 0.586825 27.653 0 25.9999 0H5.99996C4.34734 0 2.93398 0.586825 1.76026 1.76026C0.586825 2.93391 0 4.34726 0 5.99996V26.0002C0 27.653 0.586825 29.0662 1.76026 30.2396C2.93391 31.4132 4.34734 32.0001 5.99996 32.0001H10.6666C10.9719 32.0001 11.2013 31.9896 11.354 31.9691C11.5066 31.9481 11.6593 31.8578 11.8122 31.6979C11.9651 31.5383 12.0413 31.3056 12.0413 31.0002C12.0413 30.9587 12.0377 30.486 12.0308 29.5833C12.0237 28.6803 12.0203 27.9651 12.0203 27.4373L11.5411 27.5207C11.2356 27.5761 10.8501 27.6006 10.3848 27.5936C9.9197 27.5866 9.43693 27.5381 8.93701 27.4478C8.4368 27.3574 7.97169 27.1491 7.54109 26.823C7.11071 26.4963 6.80519 26.0694 6.62459 25.5417L6.41618 25.0622C6.27732 24.7431 6.0587 24.3888 5.76004 24.0002C5.46137 23.6111 5.15935 23.3472 4.85382 23.2083L4.70796 23.1041C4.61083 23.0348 4.52057 22.9511 4.43716 22.8539C4.3539 22.7565 4.29144 22.6592 4.24978 22.5623C4.20811 22.4649 4.2427 22.385 4.3539 22.3223C4.46511 22.2599 4.66629 22.2289 4.9581 22.2289L5.37461 22.2913C5.65248 22.3468 5.99602 22.5133 6.40597 22.7913C6.81562 23.069 7.15238 23.43 7.41631 23.8743C7.73592 24.4439 8.12098 24.8777 8.5726 25.1764C9.02384 25.4753 9.47881 25.6246 9.93706 25.6246C10.3953 25.6246 10.7911 25.5899 11.1246 25.5207C11.4577 25.4511 11.7702 25.3467 12.062 25.2078C12.187 24.2774 12.5274 23.5617 13.0827 23.0618C12.2912 22.9783 11.5794 22.8535 10.9473 22.6867C10.3155 22.5199 9.66262 22.2492 8.98911 21.8741C8.3153 21.499 7.75635 21.0341 7.31189 20.4782C6.8675 19.9223 6.5028 19.1932 6.21829 18.2907C5.93363 17.3877 5.79127 16.3459 5.79127 15.1654C5.79127 13.485 6.34008 12.0542 7.43725 10.8738C6.92325 9.60994 6.97178 8.19344 7.58298 6.62386C7.98577 6.49879 8.5831 6.59263 9.37468 6.90516C10.1664 7.21791 10.7461 7.48534 11.1143 7.70724C11.4825 7.92922 11.7775 8.1169 11.9998 8.26984C13.2917 7.90871 14.625 7.72819 15.9999 7.72819C17.3747 7.72819 18.7081 7.90871 20.0001 8.26984L20.7918 7.76985C21.3337 7.43638 21.9725 7.13085 22.7086 6.8532C23.4448 6.57548 24.0072 6.49901 24.3962 6.62408C25.021 8.19366 25.0769 9.61016 24.5625 10.8739C25.6597 12.0545 26.2087 13.4852 26.2087 15.1657C26.2087 16.3463 26.0663 17.3916 25.7816 18.3011C25.4972 19.2108 25.1294 19.9402 24.6776 20.4888C24.2264 21.0375 23.6638 21.4989 22.9902 21.8742C22.3166 22.2491 21.6638 22.5202 21.0317 22.6865C20.3997 22.8533 19.6881 22.9787 18.8964 23.0621C19.6181 23.6869 19.9792 24.6727 19.9792 26.0202V30.9995C19.9792 31.2357 20.0136 31.4265 20.0831 31.5724C20.153 31.7182 20.2639 31.8186 20.4167 31.8746C20.57 31.93 20.7048 31.9647 20.8232 31.9785C20.9415 31.9924 21.1113 31.9994 21.3336 31.9994H26.0003C27.6529 31.9994 29.0663 31.4126 30.2395 30.2389C31.4131 29.0653 31.9999 27.6519 31.9999 25.9992V5.99996C31.9998 4.34726 31.413 2.93369 30.2395 1.76026Z" fill="black"/>
<path d="M6.33326 23.2917C6.23614 23.3608 6.25 23.472 6.375 23.6248C6.51408 23.7636 6.62507 23.7845 6.70847 23.6872C6.8056 23.618 6.79173 23.5068 6.66652 23.3538C6.52773 23.229 6.41667 23.208 6.33326 23.2917Z" fill="black"/>
<path d="M5.64622 22.7707C5.60463 22.8681 5.65323 22.9515 5.79209 23.0207C5.90308 23.0904 5.99363 23.0767 6.06288 22.9793C6.10447 22.8819 6.05587 22.7984 5.91701 22.7288C5.77815 22.687 5.68789 22.701 5.64622 22.7707Z" fill="black"/>
<path d="M6.97911 24.1042C6.85397 24.1734 6.85397 24.2987 6.97911 24.479C7.10411 24.6599 7.22196 24.7083 7.33324 24.6248C7.45831 24.5275 7.45831 24.3956 7.33324 24.2288C7.22225 24.0487 7.10411 24.0066 6.97911 24.1042Z" fill="black"/>
<path d="M7.70865 25.0414C7.58358 25.1527 7.61116 25.2841 7.79198 25.4374C7.95843 25.6037 8.09736 25.6247 8.20849 25.4994C8.3197 25.3886 8.2919 25.2567 8.12516 25.1039C7.95872 24.9375 7.81978 24.9165 7.70865 25.0414Z" fill="black"/>
</svg>
