<svg width="32" height="32" viewBox="0 0 32 32" fill="none" xmlns="http://www.w3.org/2000/svg">
<g clip-path="url(#clip0_218_37)">
<path d="M27.6364 0H4.36364C1.95367 0 0 1.95367 0 4.36364V27.6364C0 30.0463 1.95367 32 4.36364 32H27.6364C30.0463 32 32 30.0463 32 27.6364V4.36364C32 1.95367 30.0463 0 27.6364 0Z" fill="#0077B5"/>
<path d="M11.5273 8.72727C11.5273 9.26668 11.3673 9.79397 11.0677 10.2425C10.768 10.691 10.3421 11.0405 9.84371 11.2469C9.34537 11.4534 8.797 11.5074 8.26796 11.4021C7.73892 11.2969 7.25297 11.0372 6.87156 10.6557C6.49014 10.2743 6.23039 9.78838 6.12516 9.25934C6.01993 8.7303 6.07394 8.18193 6.28036 7.68359C6.48678 7.18525 6.83634 6.7593 7.28484 6.45963C7.73333 6.15995 8.26062 6 8.80003 6C9.52335 6 10.217 6.28734 10.7285 6.7988C11.24 7.31026 11.5273 8.00396 11.5273 8.72727Z" fill="white"/>
<path d="M10.9091 13.2728V25.3219C10.9095 25.4108 10.8924 25.4989 10.8588 25.5811C10.8251 25.6634 10.7755 25.7382 10.7128 25.8012C10.6501 25.8642 10.5756 25.9143 10.4935 25.9484C10.4114 25.9825 10.3234 26.0001 10.2345 26.0001H7.35996C7.27107 26.0003 7.18301 25.983 7.10084 25.9491C7.01868 25.9152 6.94402 25.8654 6.88116 25.8025C6.81831 25.7397 6.7685 25.665 6.73459 25.5828C6.70069 25.5007 6.68336 25.4126 6.6836 25.3237V13.2728C6.6836 13.0934 6.75486 12.9214 6.8817 12.7945C7.00854 12.6677 7.18058 12.5964 7.35996 12.5964H10.2345C10.4136 12.5969 10.5851 12.6684 10.7116 12.7952C10.838 12.922 10.9091 13.0937 10.9091 13.2728V13.2728Z" fill="white"/>
<path d="M25.9348 19.5456V25.3783C25.935 25.46 25.9191 25.541 25.888 25.6165C25.8568 25.6921 25.811 25.7607 25.7532 25.8185C25.6954 25.8763 25.6268 25.9221 25.5512 25.9533C25.4757 25.9844 25.3947 26.0004 25.313 26.0001H22.2221C22.1404 26.0004 22.0594 25.9844 21.9838 25.9533C21.9083 25.9221 21.8396 25.8763 21.7819 25.8185C21.7241 25.7607 21.6783 25.6921 21.6471 25.6165C21.6159 25.541 21.6 25.46 21.6003 25.3783V19.7256C21.6003 18.8819 21.8475 16.031 19.3948 16.031C17.4948 16.031 17.1075 17.9819 17.0312 18.8583V25.3783C17.0312 25.5417 16.9669 25.6985 16.8523 25.8148C16.7376 25.9312 16.5818 25.9977 16.4184 26.0001H13.433C13.3514 26.0001 13.2706 25.984 13.1953 25.9528C13.12 25.9215 13.0515 25.8756 12.9939 25.8179C12.9363 25.7601 12.8907 25.6916 12.8597 25.6161C12.8286 25.5407 12.8128 25.4599 12.813 25.3783V13.2201C12.8128 13.1385 12.8286 13.0577 12.8597 12.9823C12.8907 12.9069 12.9363 12.8383 12.9939 12.7805C13.0515 12.7228 13.12 12.6769 13.1953 12.6457C13.2706 12.6144 13.3514 12.5983 13.433 12.5983H16.4184C16.5834 12.5983 16.7415 12.6638 16.8581 12.7804C16.9748 12.897 17.0403 13.0552 17.0403 13.2201V14.271C17.7457 13.2128 18.7912 12.3965 21.0221 12.3965C25.9639 12.3965 25.9348 17.011 25.9348 19.5456V19.5456Z" fill="white"/>
</g>
<defs>
<clipPath id="clip0_218_37">
<rect width="32" height="32" fill="white"/>
</clipPath>
</defs>
</svg>
